# xmcd CD database file
#
# Track frame offsets:
#	180
#	15567
#	32292
#	47723
#	58359
#	75818
#	91617
#	100663
#	115214
#
# Disc length: 1625 seconds
#
# Revision: 1
# Processed by: cddbd v1.4PL0 Copyright (c) Steve Scherf et al.
# Submitted via: CDex 1.40Release
#
DISCID=58065709
DTITLE=Billie Holliday - Memories of Yester-Years vol. 7
DYEAR=1997
DGENRE=Blues
TTITLE0=I Love My Man
TTITLE1=Fine and Mellow
TTITLE2=Do Nothing Till You Hear From Me
TTITLE3=Now Baby Or Never
TTITLE4=I Wonder Where Our Love Has Gone
TTITLE5=Maybe You'll Be There
TTITLE6=Miss Brown To You
TTITLE7=You Better Go Now
TTITLE8=You're Driving Me Crazy
EXTD=YEAR: 1997 ID3G: 0
EXTT0=
EXTT1=
EXTT2=
EXTT3=
EXTT4=
EXTT5=
EXTT6=
EXTT7=
EXTT8=
PLAYORDER=
